<svg width="420" height="72" viewBox="0 0 420 72" xmlns="http://www.w3.org/2000/svg"><path d="M350 68.986V6.785c0-2.058-1.618-3.742-3.597-3.742-1.886 0-3.504 1.684-3.504 3.742v62.2H350zm-70.582-59.07h21.174v59.07h7.511V9.916h21.179c1.875 0 3.472-1.507 3.472-3.389 0-1.884-1.597-3.484-3.472-3.484h-49.864c-1.879 0-3.476 1.6-3.476 3.484 0 1.882 1.597 3.389 3.476 3.389M79.13 41.573V6.786c0-2.06 1.69-3.743 3.666-3.743 2.064 0 3.756 1.684 3.756 3.743v34.319c0 14.121 7.612 22.068 20.109 22.068 12.123 0 19.828-7.293 19.828-21.6V6.786c0-2.06 1.692-3.743 3.759-3.743 1.973 0 3.665 1.684 3.665 3.743v34.226c0 19.077-10.995 28.988-27.441 28.988-16.253 0-27.342-9.911-27.342-28.427m282.03-5.371v-.189c0-18.589 13.954-33.984 33.379-33.984 10.657 0 17.447 3.473 23.574 8.544.757.656 1.51 1.69 1.51 3.003 0 1.972-1.79 3.662-3.771 3.662-1.038 0-1.887-.47-2.453-.845-5.093-4.507-10.843-7.51-18.952-7.51-14.616 0-25.555 11.826-25.555 26.942v.188c0 15.211 11.032 27.133 25.555 27.133 8.203 0 13.955-2.816 19.612-7.98.567-.563 1.416-1.032 2.357-1.032 1.886 0 3.584 1.69 3.584 3.567 0 1.127-.566 2.065-1.225 2.629C412.267 66.245 405.1 70 394.258 70c-19.05 0-33.099-14.927-33.099-33.798m-97.93-33.159c-2.075 0-3.676 1.703-3.676 3.69v49.933L219.496 5.407c-1.037-1.322-2.075-2.174-3.77-2.174h-1.035c-1.98 0-3.677 1.703-3.677 3.687v62.825h7.255v-54.5l40.907 52.483C260.307 69.053 261.44 70 263.04 70h.378c1.978 0 3.394-1.513 3.394-3.5V6.731c0-1.986-1.604-3.689-3.583-3.689M34.49 40.928v8.59l15.002 8.668c-3.63 2.41-8.578 4.378-15.097 4.378-7.766 0-14.517-2.795-19.518-8.083-4.8-5.075-7.445-11.924-7.445-19.287v-.193c0-7.363 2.68-14.247 7.54-19.384 3.533-3.734 9.804-8.18 19.616-8.18 7.766 0 14.517 2.796 19.519 8.084 4.802 5.073 7.446 11.922 7.446 19.285V35c0 6.695-2.237 12.977-6.293 17.927l-20.77-12zm34.496-6.122C68.986 16.146 55.166 0 34.588 0 14.01 0 0 16.34 0 35.001v.193C0 53.854 13.815 70 34.395 70c8.74 0 16.29-2.954 22.09-7.774l12.42 7.174v-8.588l-7.127-4.118C66.382 50.64 68.986 43.037 68.986 35v-.195zm124.765 34.18h8.133L174.435 6.13c-.756-1.87-2.178-3.088-4.354-3.088h-.38c-2.176 0-3.5 1.217-4.353 3.088l-27.377 62.855h7.94l5.61-13.227h30.783l-3.142-7.386h-24.509l15.144-35.697 23.954 56.31z" fill="#FFF" fill-rule="evenodd"/></svg>